<mxfile host="app.diagrams.net" modified="2023-07-13T07:06:21.349Z" agent="Mozilla/5.0 (Macintosh; Intel Mac OS X 10_15_7) AppleWebKit/537.36 (KHTML, like Gecko) Chrome/106.0.0.0 Safari/537.36" version="21.5.2" etag="v0U-WJWtnhlFTjIqsQOT" type="github">
  <diagram name="第 1 页" id="gP3t_8iJN_zj9pYlQ3fg">
    <mxGraphModel>
      <root>
        <mxCell id="0" />
        <mxCell id="1" parent="0" />
      </root>
    </mxGraphModel>
  </diagram>
</mxfile>
